# xmcd CD database file
#
# Track frame offsets:
#	150
#	23015
#	45746
#	61927
#	77088
#	96811
#	114150
#	146325
#	168023
#
# Disc length: 2637 seconds
#
# Revision: 0
# Processed by: cddbd v1.5.2PL0 Copyright (c) Steve Scherf et al.
# Submitted via: CDex 1.51
#
DISCID=610a4b09
DTITLE=רון שובל - עובר בשנים (דיסק 1)
DYEAR=2000
DGENRE=מזרחי
TTITLE0=אהבה בלי די (עם אסתי שחר)
TTITLE1=הצל ואני
TTITLE2=פמלה
TTITLE3=כשאת נוגעת בי
TTITLE4=את הורסת אותי
TTITLE5=רואה אלייך
TTITLE6=מחרוזת: הלילה לילה/ עוד יום יבוא/ קול קורא לי במדבר
TTITLE7=מחרוזת: צובט לי בלב/ לתת
TTITLE8=מחרוזת: אברהם אבינו (הטברייני)/ דרור יקרא/ יודוך רעיוני
EXTD=YEAR: 2000
EXTT0=
EXTT1=
EXTT2=
EXTT3=
EXTT4=
EXTT5=
EXTT6=
EXTT7=
EXTT8=
PLAYORDER=
